<svg xmlns="http://www.w3.org/2000/svg" viewBox="0 0 972.41 153.72"><title>Asset 33</title><g id="Layer_2" data-name="Layer 2"><g id="Layer_1-2" data-name="Layer 1"><path d="M57.19,123.72H32.75L0,0H26.83L46.3,89.59H47L70.13,0H92l23.15,89.59h.69L135.38,0h26.83L129.37,123.72H104.94L81.45,39.18h-.77Z"/><path d="M158.88,97.31c0-16.72,12.86-26.41,35.76-27.78l23.14-1.37V62.07c0-8.57-6-13.54-15.43-13.54s-15.26,4.63-16.46,11.4H163c.94-17.83,16.12-30.09,40.47-30.09,23.57,0,38.92,12.17,38.92,30.69v63.19H218.21V109.66h-.51c-5.15,9.77-16.55,15.51-28,15.51C172.17,125.17,158.88,113.86,158.88,97.31ZM217.78,90V83.33l-19.37,1.21c-9.35.68-14.66,4.88-14.66,11.4,0,6.86,5.65,11.14,14.14,11.14C208.78,107.08,217.78,100,217.78,90Z"/><path d="M290.24,10.63V31.81h17V50.67h-17v44c0,7,3.43,10.38,10.8,10.38a40.13,40.13,0,0,0,6.09-.43V123a57.55,57.55,0,0,1-11.92,1c-21.6,0-30-7.2-30-25.12V50.67H252.26V31.81H265.2V10.63Z"/><path d="M403.5,95.6c-2.74,18-19.2,30.09-41.92,30.09-28.3,0-45.27-18.09-45.27-47.5s17.15-48.35,44.32-48.35c26.75,0,43.64,18.09,43.64,46v7.63H340.91v1.54c0,13.12,8.32,22.12,21.1,22.12,9.17,0,16.2-4.54,18.51-11.57ZM341.17,68.16h39c-.51-11.75-8.14-19.81-19.29-19.81C349.92,48.35,342,56.67,341.17,68.16Z"/><path d="M417.14,31.81h24.18V48.35h.51c3.26-11.66,11.06-18,21.87-18a25.64,25.64,0,0,1,7.11.94v22a25.62,25.62,0,0,0-9.08-1.46c-12.35,0-19.55,7.54-19.55,20.49v51.36h-25Z"/><path d="M589.48,93.71H546l-9.43,30H510L553,0h30.43l43,123.72H598.91ZM551.59,74.33h32.32L568.05,23.66h-.6Z"/><path d="M728.21,77.76c0,29.58-14.23,47.41-37.21,47.41-13.37,0-23.66-6.51-28.55-16.89h-.51v45.44h-25V31.81h24.7v16h.51c5-10.8,15.18-17.49,28.47-17.49C713.9,30.35,728.21,48.1,728.21,77.76Zm-25.63,0c0-16.63-7.89-27.35-20.41-27.35-12.26,0-20.32,10.89-20.32,27.35,0,16.63,8.06,27.27,20.32,27.27C694.69,105,702.58,94.48,702.58,77.76Z"/><path d="M832.39,77.76c0,29.58-14.23,47.41-37.21,47.41-13.37,0-23.66-6.51-28.55-16.89h-.51v45.44h-25V31.81h24.7v16h.51c5-10.8,15.18-17.49,28.46-17.49C818.07,30.35,832.39,48.1,832.39,77.76Zm-25.63,0c0-16.63-7.89-27.35-20.41-27.35C774.09,50.41,766,61.3,766,77.76c0,16.63,8.06,27.27,20.32,27.27C798.87,105,806.76,94.48,806.76,77.76Z"/><path d="M845.86,0h25V123.72h-25Z"/><path d="M971.64,95.6c-2.74,18-19.2,30.09-41.92,30.09-28.3,0-45.27-18.09-45.27-47.5s17.14-48.35,44.32-48.35c26.75,0,43.64,18.09,43.64,46v7.63H909.05v1.54c0,13.12,8.32,22.12,21.1,22.12,9.17,0,16.2-4.54,18.51-11.57ZM909.31,68.16h39c-.51-11.75-8.14-19.81-19.29-19.81C918.06,48.35,910.17,56.67,909.31,68.16Z"/></g></g></svg>