<svg xmlns="http://www.w3.org/2000/svg" viewBox="0 0 1916.18 690.3"><defs><style>.cls-1{fill:#eae9e8;}.cls-2{fill:#7fdef7;}.cls-3{fill:#5fa3b2;opacity:0.5;}.cls-4{fill:#29825e;}.cls-5{fill:#39c976;}.cls-6{fill:#a32b34;}.cls-7{fill:#5b584d;}.cls-8{fill:#726f65;}.cls-9{fill:#ad3846;}.cls-10{fill:#842837;}</style></defs><title>Asset 36</title><g id="Layer_2" data-name="Layer 2"><g id="Layer_1-2" data-name="Layer 1"><path class="cls-1" d="M154.57,690.3c-41.14,0-79.92-16.48-109.19-46.41A158.78,158.78,0,0,1,0,532.24V158.06A158.78,158.78,0,0,1,45.38,46.41C74.65,16.48,113.43,0,154.57,0h1607c41.15,0,79.92,16.48,109.19,46.41a158.78,158.78,0,0,1,45.38,111.65V532.24a158.78,158.78,0,0,1-45.38,111.65c-29.27,29.93-68,46.41-109.19,46.41Z"/><rect class="cls-2" x="22.79" y="23.3" width="1870.61" height="643.7" rx="134.76"/><ellipse class="cls-3" cx="904.48" cy="583.33" rx="553.73" ry="83.67"/><path class="cls-4" d="M38.64,290.68s54.27,192.21,196,277.51,204.4,57.91,204.4,57.91Z"/><path class="cls-5" d="M38,291.4S236.78,311.15,345.6,435.75s92.85,191.08,92.85,191.08Z"/><path class="cls-4" d="M549.77,34.35s-123,157.33-108.13,322.09,74,199.14,74,199.14Z"/><path class="cls-5" d="M548.83,34.29S650.3,206.32,614,367.73,514.7,555.51,514.7,555.51Z"/><path class="cls-4" d="M1184.43,55s-55,213.6,32.93,373.75,162.91,168.81,162.91,168.81Z"/><path class="cls-5" d="M1183.45,55.31s178.72,129.24,213.37,308.61-17.53,234-17.53,234Z"/><path class="cls-4" d="M1868.55,388.06S1746,571.41,1568,612.62s-234.43-8.92-234.43-8.92Z"/><path class="cls-5" d="M1868.94,389s-215.47-47.09-372.28,46.64-162.72,169-162.72,169Z"/><path class="cls-6" d="M508.59,150.21c-24-35.62-71.16-46.83-108.33-27.15-28,1.34-76.86,22.06-126.95,55.8S185.66,250,173.88,275.51c-32.21,27.05-39.56,75-15.57,110.59L228,489.6a85.3,85.3,0,0,0,7,9q4.41,7.92,9.56,15.58c65.13,96.73,196.35,122.34,293.08,57.2S660,375,594.84,278.29q-5.16-7.67-10.86-14.72a82.69,82.69,0,0,0-5.69-9.86Z"/><path class="cls-7" d="M307.32,224.37S280.08,135.15,336.4,92"/><path class="cls-7" d="M342.54,212.55a126.66,126.66,0,0,1-3-12.63l1.85,9.45a181.89,181.89,0,0,1-3.27-46.09l-.62,9.48a126.77,126.77,0,0,1,5.82-31.26l-3,9A95,95,0,0,1,350.6,128.9L345.34,137a85.25,85.25,0,0,1,14.31-16.71l-7.45,6.61c1.61-1.42,3.25-2.78,4.95-4.09a28,28,0,0,0,10.08-10.65,27.87,27.87,0,0,0,5.63-13,27.91,27.91,0,0,0-.31-14.21,27.87,27.87,0,0,0-5.34-13.65c-5.72-7.73-13.9-14.23-23.69-15.71-9.39-1.42-20.08-.36-27.86,5.65S300.23,73.89,294,81.59a132.34,132.34,0,0,0-15.08,23.29c-4.1,8.1-6.94,16.88-9.52,25.56a120.44,120.44,0,0,0-3.74,17.43,204.8,204.8,0,0,0-1.61,42c.78,11.67,2.89,23.07,5.2,34.52.8,4,1.65,7.93,2.83,11.79a28.16,28.16,0,0,0,7.72,12.66,33.29,33.29,0,0,0,25.12,12.29,27.92,27.92,0,0,0,14.19-1.54c9.1-3.52,17.69-9.87,21.65-19.09a39.73,39.73,0,0,0,1.76-27.95Z"/><path class="cls-8" d="M293.73,251.23c-1.18-3.86-2-7.84-2.83-11.79-2.31-11.45-4.42-22.85-5.2-34.52a204.93,204.93,0,0,1,1.61-42,120.6,120.6,0,0,1,3.74-17.42c2.58-8.68,5.42-17.46,9.52-25.56a132.91,132.91,0,0,1,15.08-23.29c6.21-7.7,13.84-14.41,21.64-20.43s18.47-7.07,27.86-5.65c.61.09,1.21.21,1.81.34-5.71-7.59-13.79-13.93-23.44-15.39-9.39-1.42-20.08-.36-27.86,5.65S300.23,73.89,294,81.59a132.34,132.34,0,0,0-15.08,23.29c-4.1,8.1-6.94,16.88-9.52,25.56a120.44,120.44,0,0,0-3.74,17.43,204.8,204.8,0,0,0-1.61,42c.78,11.67,2.89,23.07,5.2,34.52.8,4,1.65,7.93,2.83,11.79a28.16,28.16,0,0,0,7.72,12.66,27.71,27.71,0,0,0,11.37,9,29,29,0,0,0,7.19,2.64A28.31,28.31,0,0,1,293.73,251.23Z"/><path class="cls-9" d="M403.14,290.68s-60.7,70.83-127.35,46.45"/><path class="cls-9" d="M374.28,267.29a128.26,128.26,0,0,1-9.06,9.3l7-6.63a182.3,182.3,0,0,1-37.15,27.48l8.33-4.56a127.13,127.13,0,0,1-29.5,11.86l9.21-2.31a95.67,95.67,0,0,1-23.76,2.91l9.63.13a85.39,85.39,0,0,1-21.78-3.13l9.58,2.74c-2.06-.59-4.09-1.25-6.11-2a28.09,28.09,0,0,0-14.39-2.8,33.37,33.37,0,0,0-25.85,10.13,27.89,27.89,0,0,0-8.66,11.83c-3.46,9-4.56,19.36-.56,28.42,3.84,8.68,10.47,17.14,19.71,20.48s19,6.19,28.85,7.31a133.27,133.27,0,0,0,27.74.24c9-.88,18-3.19,26.68-5.67a120.23,120.23,0,0,0,16.72-6.19,205.35,205.35,0,0,0,36.32-21.17c9.43-6.92,17.92-14.81,26.34-22.9,2.91-2.79,5.81-5.65,8.44-8.71a28.27,28.27,0,0,0,6.54-13.31,33.27,33.27,0,0,0-3.1-27.79,27.84,27.84,0,0,0-8.91-11.15c-7.84-5.8-17.81-9.64-27.72-8a39.69,39.69,0,0,0-24.53,13.51Z"/><path class="cls-6" d="M1664.71,436.74a83.77,83.77,0,0,0,2.76-111.64c-7.44-27.06-38.36-70.16-82.25-111.65s-88.65-69.93-116.09-75.84c-33.44-25.5-81.81-22.17-111.31,9l-85.72,90.67a84.19,84.19,0,0,0-7.23,8.8q-6.78,6-13.12,12.74c-80.11,84.75-76.35,218.39,8.4,298.49s218.39,76.35,298.5-8.4q6.33-6.71,12-13.81a83.21,83.21,0,0,0,8.38-7.72Z"/><path class="cls-7" d="M1548.26,256.61s81.09-46.12,135.57-.63"/><path class="cls-7" d="M1567.51,288.38a129.6,129.6,0,0,1,11.67-5.69l-8.82,3.88a181.74,181.74,0,0,1,44.26-13.29l-9.38,1.47a126.12,126.12,0,0,1,31.77-1.17l-9.45-.95a95.42,95.42,0,0,1,23.34,5.29l-9-3.37a85.25,85.25,0,0,1,19.44,10.31l-8.09-5.82q2.61,1.88,5.08,3.93a41.37,41.37,0,0,0,26.56,10.13,41.3,41.3,0,0,0,25.94-11.61c6.29-7.27,10.84-16.68,10.14-26.56-.67-9.46-4-19.67-11.61-25.94s-15.81-12.26-24.68-16.64a133.24,133.24,0,0,0-26-9.61c-8.81-2.23-18-3.08-27-3.69a120.45,120.45,0,0,0-17.82.17,204.57,204.57,0,0,0-41.34,7.63c-11.22,3.32-21.87,7.87-32.54,12.64-3.69,1.64-7.38,3.35-10.89,5.34a28.06,28.06,0,0,0-10.65,10.31,27.59,27.59,0,0,0-6.29,13.06,28.12,28.12,0,0,0-.2,14.14,28,28,0,0,0,4.61,13.51c5.42,8.11,13.5,15.1,23.37,16.94a39.63,39.63,0,0,0,27.65-4.41Z"/><path class="cls-8" d="M1519.08,249.23c3.51-2,7.2-3.7,10.88-5.34,10.67-4.77,21.33-9.32,32.54-12.64a205.39,205.39,0,0,1,41.34-7.63,119.11,119.11,0,0,1,17.82-.16c9,.61,18.23,1.46,27,3.69a132.33,132.33,0,0,1,26,9.6c8.88,4.38,17.1,10.35,24.68,16.64s10.94,16.48,11.61,25.95c0,.61.07,1.23.08,1.84,6.14-7.23,10.56-16.51,9.87-26.25-.67-9.46-4-19.67-11.61-25.94s-15.81-12.26-24.68-16.64a133.24,133.24,0,0,0-26-9.61c-8.81-2.23-18-3.08-27-3.69a120.45,120.45,0,0,0-17.82.17,204.57,204.57,0,0,0-41.34,7.63c-11.22,3.32-21.87,7.87-32.54,12.64-3.69,1.64-7.38,3.35-10.89,5.34a28.06,28.06,0,0,0-10.65,10.31,27.59,27.59,0,0,0-6.29,13.06,28.79,28.79,0,0,0-1,7.59A28.49,28.49,0,0,1,1519.08,249.23Z"/><path class="cls-9" d="M1537.47,465.16s83.71-41.17,76.68-111.79"/><path class="cls-9" d="M1522,431.39a129.48,129.48,0,0,0,11.26-6.46l-8.15,5.12A182.13,182.13,0,0,0,1561,400.9l-6.49,6.94a127.1,127.1,0,0,0,18.82-25.63l-4.53,8.35a95.49,95.49,0,0,0,8.74-22.28l-2.28,9.35a85.25,85.25,0,0,0,2.39-21.87l.27,10c-.05-2.14-.19-4.28-.39-6.41a27.94,27.94,0,0,1,.87-14.64,33.4,33.4,0,0,1,16.23-22.52,28,28,0,0,1,13.62-5.44c9.55-1.12,19.88.4,27.66,6.53,7.45,5.87,14,14.4,14.94,24.18s1.26,20-.1,29.77a132.83,132.83,0,0,1-6.67,26.92c-3.1,8.54-7.56,16.62-12.13,24.43a119.07,119.07,0,0,1-10.15,14.65,205.22,205.22,0,0,1-29.53,29.92c-9,7.41-18.8,13.67-28.74,19.82-3.43,2.12-6.92,4.22-10.54,6a28.11,28.11,0,0,1-14.51,3,27.73,27.73,0,0,1-14.34-2.14,41.68,41.68,0,0,1-20.4-19.18c-3.66-9-4.9-19.65-.88-28.85a39.7,39.7,0,0,1,19.18-20.4Z"/><path class="cls-10" d="M592,278.48q-5.16-7.65-10.85-14.71a82.77,82.77,0,0,0-5.7-9.86l-46.24-68.67c-9.49,3.44-17.44,7.22-23.49,11.22-41.62,6.08-73.06,43-71.38,85.89L439.2,407a82.84,82.84,0,0,0,1.23,11.33q-.42,9.06-.07,18.28a210.52,210.52,0,0,0,70.15,149.05,212.44,212.44,0,0,0,24.27-14.12C631.5,506.43,657.11,375.21,592,278.48Z"/><path class="cls-10" d="M511.26,158.63l-4.86-7.22A27.6,27.6,0,0,0,511.26,158.63Z"/><path class="cls-10" d="M1314.8,410.75q-.36-9.22-1.5-18.22a82.85,82.85,0,0,0,.34-11.39l-4.89-124.68a82.8,82.8,0,0,0-15-44.37l-22.73,24a84.09,84.09,0,0,0-7.23,8.79q-6.77,6-13.12,12.74c-80.11,84.75-76.35,218.39,8.4,298.5,1,.91,1.94,1.79,2.91,2.68A210.47,210.47,0,0,0,1314.8,410.75Z"/><path class="cls-6" d="M920,274.74c1.68-42.91-29.77-79.82-71.38-85.89-23.41-15.48-75.06-27.59-135.4-30s-112.77,5.67-137.32,19.27a83.79,83.79,0,0,0-77.88,80l-4.89,124.68a82.65,82.65,0,0,0,.34,11.38q-1.12,9-1.5,18.22c-4.57,116.53,86.2,214.7,202.72,219.26S909.34,545.56,913.91,429q.36-9.22-.07-18.28a82.84,82.84,0,0,0,1.23-11.33Z"/><path class="cls-7" d="M713.74,215.71S744.46,127.62,815.42,126"/><path class="cls-7" d="M749.14,227a129.35,129.35,0,0,1,5.05-12l-4.09,8.72a181.92,181.92,0,0,1,24.58-39.13l-6.09,7.29a125.83,125.83,0,0,1,23.15-21.79L784,175.6a95.84,95.84,0,0,1,21.06-11.37l-9,3.39a85.2,85.2,0,0,1,21.42-5l-9.92.94c2.14-.21,4.27-.33,6.41-.39a28,28,0,0,0,14.42-2.63,27.85,27.85,0,0,0,12.25-7.21,27.88,27.88,0,0,0,8.14-11.64,28,28,0,0,0,3.76-14.17c-.06-9.62-2.82-19.7-9.84-26.67-6.74-6.69-16-12.15-25.82-11.9s-20,1.17-29.53,3.71a132.77,132.77,0,0,0-25.92,9.88c-8.1,4.12-15.58,9.53-22.78,15a119.75,119.75,0,0,0-13.31,11.85,204.82,204.82,0,0,0-26.11,32.94C693,172.2,687.93,182.64,683,193.25c-1.7,3.66-3.35,7.38-4.69,11.19a28.14,28.14,0,0,0-1.24,14.77,27.57,27.57,0,0,0,3.87,14A28,28,0,0,0,690.12,244a27.94,27.94,0,0,0,12.36,7.14c9.41,2.53,20.09,2.48,28.74-2.62A39.74,39.74,0,0,0,749.14,227Z"/><path class="cls-8" d="M686.91,229.36c1.33-3.81,3-7.53,4.68-11.19,4.9-10.61,9.93-21,16.19-30.93A205.43,205.43,0,0,1,733.9,154.3a118.85,118.85,0,0,1,13.31-11.85c7.2-5.48,14.68-10.89,22.78-15a132.93,132.93,0,0,1,25.91-9.88c9.57-2.54,19.69-3.46,29.54-3.71s19.08,5.21,25.81,11.9c.44.43.86.88,1.27,1.34-.13-9.49-2.91-19.39-9.83-26.26-6.74-6.69-16-12.15-25.82-11.9s-20,1.17-29.53,3.71a132.77,132.77,0,0,0-25.92,9.88c-8.1,4.12-15.58,9.53-22.78,15a119.75,119.75,0,0,0-13.31,11.85,204.82,204.82,0,0,0-26.11,32.94C693,172.2,687.93,182.64,683,193.25c-1.7,3.66-3.35,7.38-4.69,11.19a28.14,28.14,0,0,0-1.24,14.77,27.57,27.57,0,0,0,3.87,14,28.57,28.57,0,0,0,4.24,6.38A28.46,28.46,0,0,1,686.91,229.36Z"/><path class="cls-9" d="M566,382S541.66,292,599.36,250.62"/><path class="cls-9" d="M601.55,371.35A127.52,127.52,0,0,1,599,358.62l1.54,9.51A181.69,181.69,0,0,1,598.75,322l-.93,9.45a126.51,126.51,0,0,1,6.83-31.05l-3.28,8.91a95,95,0,0,1,11-21.27l-5.53,7.89a85.5,85.5,0,0,1,14.86-16.24L614,286q2.47-2.06,5.08-3.93a28,28,0,0,0,10.42-10.31,33.36,33.36,0,0,0,6.2-27.06,27.9,27.9,0,0,0-4.89-13.82c-5.46-7.91-13.43-14.68-23.16-16.48-9.34-1.72-20.06-1-28,4.74s-15.84,12.22-22.3,19.71a133.28,133.28,0,0,0-15.83,22.79c-4.36,8-7.49,16.65-10.35,25.23a119.82,119.82,0,0,0-4.3,17.3,204.52,204.52,0,0,0-3,41.93c.4,11.69,2.14,23.15,4.07,34.67.67,4,1.4,8,2.45,11.88a28.24,28.24,0,0,0,7.3,12.9,27.69,27.69,0,0,0,11.07,9.36,41.66,41.66,0,0,0,27.87,2.67c9.21-3.22,18-9.29,22.26-18.38a39.66,39.66,0,0,0,2.67-27.87Z"/><path class="cls-10" d="M913.91,429.36q.36-9.23-.07-18.28a82.84,82.84,0,0,0,1.23-11.33L920,275.07c1.68-42.92-29.77-79.82-71.38-85.89l-1.21-.78-1.21.78a83.78,83.78,0,0,0-71.38,85.89l4.89,124.68a84.44,84.44,0,0,0,1.22,11.33q-.42,9-.06,18.28A210.46,210.46,0,0,0,847.37,575.1,210.46,210.46,0,0,0,913.91,429.36Z"/><path class="cls-6" d="M853.4,257.18c-1.69-42.91,29.76-79.82,71.37-85.89,23.42-15.48,75.06-27.59,135.4-30S1172.94,147,1197.5,160.6c42,2.8,76.2,37.13,77.88,80.05l4.88,124.68a84.27,84.27,0,0,1-.33,11.38q1.13,9,1.49,18.23c4.57,116.52-86.19,214.69-202.72,219.25S864,528,859.44,411.47q-.36-9.23.07-18.28a82.84,82.84,0,0,1-1.23-11.33Z"/><path class="cls-7" d="M1059.61,198.15s-30.72-88.08-101.67-89.67"/><path class="cls-7" d="M1024.21,209.42a128.31,128.31,0,0,0-5-12l4.09,8.72A182,182,0,0,0,998.67,167l6.1,7.29a126.2,126.2,0,0,0-23.16-21.79l7.74,5.5a95.84,95.84,0,0,0-21.06-11.37l9,3.39a85.2,85.2,0,0,0-21.42-5l9.92.94c-2.13-.21-4.27-.33-6.41-.39A27.88,27.88,0,0,1,945,143a27.91,27.91,0,0,1-12.25-7.21,27.88,27.88,0,0,1-8.14-11.64,28,28,0,0,1-3.75-14.17c0-9.62,2.81-19.7,9.84-26.67,6.73-6.69,16-12.15,25.81-11.9s20,1.17,29.53,3.71A132.77,132.77,0,0,1,1011.93,85c8.1,4.12,15.58,9.53,22.78,15A118.85,118.85,0,0,1,1048,111.82a205.43,205.43,0,0,1,26.12,32.94c6.26,9.88,11.29,20.32,16.19,30.93,1.69,3.66,3.35,7.38,4.68,11.19a28.14,28.14,0,0,1,1.24,14.77,27.66,27.66,0,0,1-3.86,14,28.21,28.21,0,0,1-9.15,10.79,28.05,28.05,0,0,1-12.36,7.14c-9.42,2.53-20.1,2.48-28.75-2.62a39.72,39.72,0,0,1-17.92-21.51Z"/><path class="cls-8" d="M1086.44,211.8c-1.33-3.81-3-7.53-4.68-11.19-4.9-10.61-9.93-21.05-16.19-30.93a205.37,205.37,0,0,0-26.11-32.94,120.65,120.65,0,0,0-13.31-11.85c-7.2-5.48-14.69-10.89-22.78-15A133,133,0,0,0,977.45,100c-9.56-2.54-19.69-3.45-29.53-3.71s-19.08,5.21-25.82,11.9c-.44.43-.86.88-1.26,1.34.12-9.49,2.9-19.38,9.83-26.26,6.73-6.69,16-12.15,25.81-11.9s20,1.17,29.53,3.71A132.77,132.77,0,0,1,1011.93,85c8.1,4.12,15.58,9.53,22.78,15A118.85,118.85,0,0,1,1048,111.82a205.43,205.43,0,0,1,26.12,32.94c6.26,9.88,11.29,20.32,16.19,30.93,1.69,3.66,3.35,7.38,4.68,11.19a28.14,28.14,0,0,1,1.24,14.77,27.66,27.66,0,0,1-3.86,14,29.27,29.27,0,0,1-4.24,6.38A28.48,28.48,0,0,0,1086.44,211.8Z"/><path class="cls-9" d="M1122.11,533.05s88-30.94,89.41-101.9"/><path class="cls-9" d="M1110.75,497.68a126.82,126.82,0,0,0,12-5.07l-8.71,4.11A182.06,182.06,0,0,0,1153.06,472l-7.27,6.12a126.54,126.54,0,0,0,21.74-23.21l-5.49,7.75a95.6,95.6,0,0,0,11.32-21.08l-3.37,9a85.9,85.9,0,0,0,5-21.44l-.91,9.92q.29-3.19.36-6.41a28,28,0,0,1,2.6-14.43,38.17,38.17,0,0,1,33-24.22c9.62,0,19.7,2.76,26.69,9.77,6.71,6.72,12.19,16,12,25.78s-1.12,20-3.64,29.55a132.35,132.35,0,0,1-9.82,25.94c-4.09,8.11-9.48,15.6-14.94,22.82a120.68,120.68,0,0,1-11.82,13.34,205,205,0,0,1-32.88,26.19c-9.86,6.29-20.29,11.35-30.88,16.27-3.66,1.7-7.37,3.37-11.18,4.71a28.15,28.15,0,0,1-14.77,1.28,27.59,27.59,0,0,1-14-3.83,41.55,41.55,0,0,1-18-21.46c-2.56-9.41-2.53-20.09,2.55-28.75a39.65,39.65,0,0,1,21.46-18Z"/></g></g></svg>