<svg xmlns="http://www.w3.org/2000/svg" viewBox="0 0 1263.97 164.95"><title>Asset 35</title><g id="Layer_2" data-name="Layer 2"><g id="Layer_1-2" data-name="Layer 1"><path d="M24.56,95.23c1.64,10.43,12.15,16.63,26.29,16.63,13.87,0,23.35-6.72,23.35-15.86,0-8.18-5.86-12.84-21.46-16l-13.1-2.59c-24.82-4.91-37-16.8-37-35.33C2.67,19.3,22.49,4.22,50.16,4.22c29,0,47.31,15.17,47.74,38H73.34c-.86-10.6-10.08-17-23.18-17-12.84,0-21.46,6-21.46,15.17,0,7.67,6,12.41,20.68,15.34l13.19,2.67c26.28,5.26,37.74,15.86,37.74,34.73,0,24.31-19,39.73-50.15,39.73C20.51,132.89.78,118.67,0,95.23Z"/><path d="M110.67,84.46c0-29.91,18.1-48.09,45.76-48.09s45.76,18.1,45.76,48.09c0,30.42-17.84,48.26-45.76,48.26S110.67,114.79,110.67,84.46Zm65.93.08c0-18.35-7.93-28.95-20.17-28.95s-20.25,10.6-20.25,29c0,18.53,7.84,29,20.25,29S176.6,103.07,176.6,84.54Z"/><path d="M215.13,38.35h24.3V54.81H240c4.91-11.46,14.65-18.18,28.87-18.18,20.51,0,32.06,12.92,32.06,34.55v59.56H275.72V76.44c0-12.06-5.69-19-17-19S240.3,65.75,240.3,77.73v53H215.13Z"/><path d="M316.84,38.35h24.3V54.81h.52c4.91-11.46,14.65-18.18,28.87-18.18,20.51,0,32.06,12.92,32.06,34.55v59.56H377.42V76.44c0-12.06-5.69-19-17-19S342,65.75,342,77.73v53H316.84Z"/><path d="M420.44,164.69V145.3c.86.17,5.43.17,6.37.17,9.14,0,13.71-2.93,15.43-10.25,0-.35.95-4.05.86-4.4L411,38.35h27.57l19.65,72.22h.52l19.56-72.22h26.55L473,132.8C465.16,156.5,453.53,165,430,165,429.05,165,421.3,164.86,420.44,164.69Z"/><path d="M516.45,54.9V6.38H538V54.9Z"/><path d="M592.64,36.37c23.7,0,38.35,12.15,38.87,30.25H608.32C607.55,59.12,602,54,592.64,54c-8.7,0-14.48,4-14.48,10.08,0,4.74,3.45,7.93,12.76,9.91l15.77,3.36c19.3,4,27.23,11.64,27.23,25.16,0,18.19-16.63,30.17-40.42,30.17-25.51,0-40.25-11.9-41.88-30.08h24.56c1.55,8.1,7.32,12.41,17.32,12.41,9.48,0,15.34-3.88,15.34-9.91,0-4.91-3.19-7.67-12.24-9.74l-15.77-3.27C563,88.34,553.94,79.37,553.94,65.5,553.94,47.92,569.11,36.37,592.64,36.37Z"/><path d="M773,84.54c0,29.74-14.31,47.66-37.4,47.66-13.45,0-23.79-6.55-28.7-17h-.52V160.9H681.25V38.35h24.82V54.47h.51c5-10.86,15.26-17.58,28.62-17.58C758.64,36.89,773,54.72,773,84.54Zm-25.77,0c0-16.71-7.93-27.49-20.51-27.49-12.32,0-20.42,11-20.42,27.49,0,16.72,8.1,27.41,20.42,27.41C739.33,112,747.26,101.35,747.26,84.54Z"/><path d="M782.61,84.46c0-29.91,18.1-48.09,45.76-48.09s45.76,18.1,45.76,48.09c0,30.42-17.84,48.26-45.76,48.26S782.61,114.79,782.61,84.46Zm65.93.08c0-18.35-7.93-28.95-20.17-28.95s-20.25,10.6-20.25,29c0,18.53,7.84,29,20.25,29S848.54,103.07,848.54,84.54Z"/><path d="M887.07,38.35h24.3V55h.52c3.27-11.72,11.12-18.09,22-18.09a25.58,25.58,0,0,1,7.15.94V60a26,26,0,0,0-9.14-1.46c-12.41,0-19.65,7.58-19.65,20.59v51.63H887.07Z"/><path d="M983.17,17.06V38.35h17.06v19H983.17v44.21c0,7.07,3.45,10.43,10.86,10.43a40.56,40.56,0,0,0,6.12-.43v18.53a58.21,58.21,0,0,1-12,1c-21.72,0-30.17-7.24-30.17-25.25V57.31H945v-19h13V17.06Z"/><path d="M1014,38.35h24.3V55h.52c3.27-11.72,11.12-18.09,22-18.09a25.65,25.65,0,0,1,7.16.94V60a26,26,0,0,0-9.14-1.46c-12.41,0-19.65,7.58-19.65,20.59v51.63H1014Z"/><path d="M1072.55,104.19c0-16.8,12.93-26.54,35.94-27.92l23.27-1.38V68.77c0-8.62-6-13.61-15.51-13.61s-15.34,4.65-16.55,11.46h-23c1-17.93,16.2-30.25,40.68-30.25,23.7,0,39.12,12.24,39.12,30.85v63.52h-24.3V116.6h-.52c-5.17,9.83-16.63,15.6-28.18,15.6C1085.91,132.2,1072.55,120.82,1072.55,104.19Zm59.21-7.32V90.15l-19.48,1.2c-9.39.69-14.74,4.91-14.74,11.46,0,6.9,5.69,11.21,14.22,11.21C1122.71,114,1131.76,106.86,1131.76,96.87Z"/><path d="M1172.53,12.93a13.1,13.1,0,1,1,13.1,12.92A12.95,12.95,0,0,1,1172.53,12.93Zm.61,25.42h25.16v92.39h-25.16Z"/><path d="M1246.91,17.06V38.35H1264v19h-17.06v44.21c0,7.07,3.45,10.43,10.86,10.43a40.56,40.56,0,0,0,6.12-.43v18.53a58.21,58.21,0,0,1-12,1c-21.72,0-30.16-7.24-30.16-25.25V57.31h-13v-19h13V17.06Z"/></g></g></svg>