<svg xmlns="http://www.w3.org/2000/svg" viewBox="0 0 1808.33 152.01"><title>Asset 32</title><g id="Layer_2" data-name="Layer 2"><g id="Layer_1-2" data-name="Layer 1"><path d="M101.89,62.36c0,38.37-23.32,58.72-51.77,58.72C20.68,121.08,0,98.25,0,64.51,0,29.11,22,6,51.77,6,82.21,6,101.89,29.28,101.89,62.36ZM15.38,64.18c0,23.82,12.9,45.15,35.56,45.15,22.83,0,35.73-21,35.73-46.31,0-22.17-11.58-45.32-35.56-45.32C27.29,17.7,15.38,39.7,15.38,64.18Z"/><path d="M120.08,60.87c0-8.27-.16-15-.66-21.67h12.9l.83,13.23h.33c4-7.61,13.23-15,26.46-15,11.09,0,28.29,6.62,28.29,34.08v47.8H173.67V73.11c0-12.9-4.79-23.65-18.52-23.65-9.59,0-17,6.78-19.52,14.88a21,21,0,0,0-1,6.78v48.14H120.08Z"/><path d="M220,81.88c.34,19.68,12.91,27.78,27.46,27.78,10.42,0,16.71-1.82,22.17-4.13L272.09,116c-5.13,2.31-13.9,5-26.63,5-24.65,0-39.37-16.21-39.37-40.36s14.23-43.17,37.55-43.17c26.13,0,33.08,23,33.08,37.71a54,54,0,0,1-.5,6.79Zm42.68-10.42c.16-9.27-3.81-23.66-20.18-23.66-14.72,0-21.17,13.57-22.33,23.66Z"/><path d="M399,1.82V98.58c0,7.11.16,15.22.66,20.68H386.54l-.66-13.9h-.33c-4.46,8.93-14.22,15.72-27.29,15.72-19.35,0-34.24-16.38-34.24-40.69-.16-26.63,16.38-43,35.89-43,12.24,0,20.51,5.79,24.15,12.24h.33V1.82Zm-14.56,70a25.5,25.5,0,0,0-.66-6.12,21.41,21.41,0,0,0-21-16.88c-15.06,0-24,13.24-24,30.93,0,16.21,7.94,29.61,23.66,29.61,9.75,0,18.69-6.45,21.33-17.37a25,25,0,0,0,.66-6.28Z"/><path d="M431.2,81.88c.33,19.68,12.9,27.78,27.46,27.78,10.42,0,16.7-1.82,22.16-4.13L483.3,116c-5.12,2.31-13.89,5-26.63,5-24.64,0-39.36-16.21-39.36-40.36s14.22-43.17,37.54-43.17c26.14,0,33.09,23,33.09,37.71a56,56,0,0,1-.5,6.79Zm42.68-10.42c.16-9.27-3.81-23.66-20.18-23.66-14.72,0-21.18,13.57-22.33,23.66Z"/><path d="M506,1.82h14.56V119.26H506Z"/><path d="M561.21,16.71c.16,5-3.48,8.93-9.27,8.93a8.65,8.65,0,0,1-8.76-8.93,8.87,8.87,0,0,1,9.09-9.1C557.73,7.61,561.21,11.58,561.21,16.71ZM545,119.26V39.2h14.55v80.06Z"/><path d="M640.77,116.28c-3.81,2-12.25,4.63-23,4.63-24.15,0-39.86-16.37-39.86-40.85,0-24.65,16.87-42.51,43-42.51,8.6,0,16.21,2.15,20.18,4.13l-3.31,11.25c-3.48-2-8.93-3.81-16.87-3.81-18.36,0-28.29,13.57-28.29,30.27,0,18.53,11.91,29.94,27.79,29.94a41.3,41.3,0,0,0,17.86-4Z"/><path d="M674,16.71c.17,5-3.47,8.93-9.26,8.93A8.66,8.66,0,0,1,656,16.71a8.87,8.87,0,0,1,9.1-9.1C670.54,7.61,674,11.58,674,16.71ZM657.8,119.26V39.2h14.56v80.06Z"/><path d="M769,78.57c0,29.6-20.51,42.51-39.86,42.51-21.67,0-38.38-15.88-38.38-41.19,0-26.8,17.54-42.51,39.7-42.51C753.4,37.38,769,54.09,769,78.57Zm-63.51.82c0,17.54,10.09,30.77,24.31,30.77,13.89,0,24.31-13.07,24.31-31.1,0-13.56-6.78-30.76-24-30.76S705.44,64.18,705.44,79.39Z"/><path d="M854.3,97.42c0,8.27.16,15.55.66,21.84h-12.9l-.83-13.07h-.33a30.12,30.12,0,0,1-26.46,14.89c-12.57,0-27.63-7-27.63-35.07V39.2h14.56V83.53c0,15.22,4.63,25.47,17.86,25.47,9.76,0,16.54-6.78,19.19-13.23a21.23,21.23,0,0,0,1.32-7.44V39.2H854.3Z"/><path d="M876.46,104.37a38.17,38.17,0,0,0,19.19,5.79c10.58,0,15.55-5.29,15.55-11.91,0-7-4.14-10.75-14.89-14.72-14.39-5.13-21.17-13.07-21.17-22.66,0-12.9,10.42-23.49,27.62-23.49a40,40,0,0,1,19.68,5l-3.63,10.59a31.16,31.16,0,0,0-16.38-4.63c-8.6,0-13.4,5-13.4,10.91,0,6.62,4.8,9.6,15.22,13.57,13.89,5.29,21,12.24,21,24.15,0,14.06-10.92,24-29.94,24-8.77,0-16.87-2.15-22.5-5.46Z"/><path d="M996.54,16.21v23h20.84V50.28H996.54V93.45c0,9.93,2.81,15.55,10.92,15.55a32.3,32.3,0,0,0,8.44-1l.66,10.92a35.88,35.88,0,0,1-12.91,2c-6.78,0-12.24-2.15-15.71-6.12-4.13-4.3-5.62-11.41-5.62-20.84V50.28H969.91V39.2h12.41V20Z"/><path d="M1033.76,64.18c0-9.43-.17-17.54-.66-25h12.73l.5,15.71h.66c3.64-10.75,12.41-17.53,22.16-17.53a15.76,15.76,0,0,1,4.14.5V51.61a21.91,21.91,0,0,0-5-.5c-10.26,0-17.54,7.77-19.52,18.69a41.11,41.11,0,0,0-.66,6.78v42.68h-14.39Z"/><path d="M1158.64,78.57c0,29.6-20.51,42.51-39.87,42.51-21.66,0-38.37-15.88-38.37-41.19,0-26.8,17.53-42.51,39.7-42.51C1143.09,37.38,1158.64,54.09,1158.64,78.57Zm-63.52.82c0,17.54,10.09,30.77,24.32,30.77,13.89,0,24.31-13.07,24.31-31.1,0-13.56-6.78-30.76-24-30.76S1095.12,64.18,1095.12,79.39Z"/><path d="M1177,65.33c0-10.25-.33-18.52-.67-26.13h13.07l.66,13.73h.33c6-9.76,15.39-15.55,28.45-15.55,19.36,0,33.91,16.38,33.91,40.69,0,28.78-17.53,43-36.39,43-10.58,0-19.85-4.63-24.64-12.57h-.33V152H1177Zm14.39,21.34a32.92,32.92,0,0,0,.66,6,22.44,22.44,0,0,0,21.83,17c15.38,0,24.32-12.57,24.32-30.93,0-16-8.44-29.77-23.82-29.77-9.93,0-19.19,7.11-22,18a23.44,23.44,0,0,0-1,6Z"/><path d="M1287.32,16.71c.16,5-3.48,8.93-9.26,8.93a8.66,8.66,0,0,1-8.77-8.93,8.87,8.87,0,0,1,9.1-9.1C1283.84,7.61,1287.32,11.58,1287.32,16.71Zm-16.21,102.55V39.2h14.55v80.06Z"/><path d="M1366.88,116.28c-3.81,2-12.24,4.63-23,4.63-24.15,0-39.87-16.37-39.87-40.85,0-24.65,16.87-42.51,43-42.51,8.6,0,16.21,2.15,20.18,4.13l-3.31,11.25c-3.47-2-8.93-3.81-16.87-3.81-18.36,0-28.29,13.57-28.29,30.27,0,18.53,11.91,29.94,27.79,29.94a41.39,41.39,0,0,0,17.87-4Z"/><path d="M1428.24,119.26l-1.16-10.09h-.49c-4.47,6.28-13.07,11.91-24.48,11.91-16.21,0-24.48-11.42-24.48-23,0-19.35,17.2-29.93,48.13-29.77V66.66c0-6.62-1.82-18.53-18.2-18.53a39.9,39.9,0,0,0-20.84,6l-3.3-9.6c6.61-4.3,16.21-7.11,26.3-7.11,24.48,0,30.43,16.71,30.43,32.75v29.94a113,113,0,0,0,1.32,19.19Zm-2.15-40.86c-15.88-.33-33.91,2.48-33.91,18,0,9.43,6.29,13.9,13.73,13.9a19.91,19.91,0,0,0,19.35-13.4,15.13,15.13,0,0,0,.83-4.63Z"/><path d="M1463.64,1.82h14.55V119.26h-14.55Z"/><path d="M1539.22,119.26v-69H1528V39.2h11.25V35.4c0-11.25,2.48-21.51,9.26-28A27.87,27.87,0,0,1,1568,0a33.71,33.71,0,0,1,12.41,2.32l-2,11.24a21.74,21.74,0,0,0-9.26-1.82c-12.4,0-15.55,10.92-15.55,23.16v4.3H1573V50.28h-19.35v69Z"/><path d="M1586,64.18c0-9.43-.17-17.54-.66-25h12.73l.5,15.71h.66c3.64-10.75,12.41-17.53,22.17-17.53a15.73,15.73,0,0,1,4.13.5V51.61a21.91,21.91,0,0,0-5-.5c-10.25,0-17.53,7.77-19.52,18.69a41.11,41.11,0,0,0-.66,6.78v42.68H1586Z"/><path d="M1707.11,97.42c0,8.27.16,15.55.66,21.84h-12.9l-.83-13.07h-.33a30.13,30.13,0,0,1-26.47,14.89c-12.57,0-27.62-7-27.62-35.07V39.2h14.56V83.53c0,15.22,4.63,25.47,17.86,25.47,9.76,0,16.54-6.78,19.19-13.23a21.46,21.46,0,0,0,1.32-7.44V39.2h14.56Z"/><path d="M1747.46,16.71c.17,5-3.47,8.93-9.26,8.93a8.66,8.66,0,0,1-8.77-8.93,8.87,8.87,0,0,1,9.1-9.1C1744,7.61,1747.46,11.58,1747.46,16.71Zm-16.21,102.55V39.2h14.56v80.06Z"/><path d="M1787.49,16.21v23h20.84V50.28h-20.84V93.45c0,9.93,2.81,15.55,10.92,15.55a32.22,32.22,0,0,0,8.43-1l.66,10.92a35.78,35.78,0,0,1-12.9,2c-6.78,0-12.24-2.15-15.71-6.12-4.14-4.3-5.62-11.41-5.62-20.84V50.28h-12.41V39.2h12.41V20Z"/></g></g></svg>