<svg xmlns="http://www.w3.org/2000/svg" viewBox="0 0 1363.78 245.48"><title>Asset 29</title><g id="Layer_2" data-name="Layer 2"><g id="Layer_1-2" data-name="Layer 1"><path d="M74.47,144.79c1.63,10.43,12.15,16.64,26.28,16.64,13.88,0,23.36-6.72,23.36-15.86,0-8.19-5.86-12.84-21.46-16L89.55,127c-24.82-4.92-37-16.81-37-35.34,0-22.75,19.82-37.83,47.48-37.83,29,0,47.31,15.17,47.75,38H123.24c-.86-10.6-10.08-17-23.18-17-12.84,0-21.46,6-21.46,15.16,0,7.67,6,12.41,20.69,15.34L112.47,108c26.29,5.26,37.75,15.86,37.75,34.74,0,24.3-19.05,39.73-50.16,39.73-29.64,0-49.38-14.22-50.16-37.67Z"/><path d="M160.57,134c0-29.9,18.1-48.09,45.77-48.09S252.1,104,252.1,134c0,30.42-17.84,48.26-45.76,48.26S160.57,164.36,160.57,134Zm65.93.09c0-18.36-7.93-29-20.16-29s-20.26,10.6-20.26,29c0,18.53,7.85,28.95,20.26,28.95S226.5,152.64,226.5,134.11Z"/><path d="M265,87.92h24.3v16.45h.52c4.91-11.46,14.65-18.18,28.87-18.18,20.51,0,32,12.93,32,34.56V180.3H325.62V126c0-12.07-5.69-19-17-19s-18.44,8.27-18.44,20.25v53H265Z"/><path d="M366.74,87.92H391v16.45h.52c4.91-11.46,14.65-18.18,28.87-18.18,20.51,0,32.06,12.93,32.06,34.56V180.3H427.33V126c0-12.07-5.69-19-17-19s-18.44,8.27-18.44,20.25v53H366.74Z"/><path d="M470.34,214.26V194.87c.86.17,5.43.17,6.38.17,9.13,0,13.7-2.93,15.42-10.26,0-.34.95-4.05.86-4.39L460.86,87.92h27.58l19.65,72.22h.51l19.57-72.22h26.54l-31.8,94.45c-7.84,23.7-19.48,32.15-43,32.15C479,214.52,471.2,214.43,470.34,214.26Z"/><path d="M566.36,104.46V55.94H587.9v48.52Z"/><path d="M642.54,85.93c23.7,0,38.35,12.16,38.87,30.25H658.23c-.78-7.5-6.38-12.58-15.69-12.58-8.7,0-14.48,4-14.48,10.08,0,4.74,3.45,7.93,12.76,9.91L656.59,127c19.31,4,27.23,11.63,27.23,25.16,0,18.18-16.63,30.16-40.42,30.16-25.5,0-40.24-11.89-41.88-30.07h24.56c1.55,8.1,7.33,12.41,17.32,12.41,9.49,0,15.35-3.88,15.35-9.91,0-4.92-3.19-7.67-12.24-9.74l-15.77-3.28c-17.84-3.79-26.89-12.75-26.89-26.63C603.85,97.48,619,85.93,642.54,85.93Z"/><path d="M822.93,134.11c0,29.73-14.3,47.66-37.4,47.66-13.44,0-23.79-6.55-28.7-17h-.51v45.68H731.15V87.92H756V104h.52c5-10.86,15.25-17.58,28.61-17.58C808.54,86.45,822.93,104.29,822.93,134.11Zm-25.76,0c0-16.72-7.93-27.49-20.52-27.49-12.32,0-20.42,10.94-20.42,27.49,0,16.72,8.1,27.41,20.42,27.41C789.24,161.52,797.17,150.91,797.17,134.11Z"/><path d="M832.51,134c0-29.9,18.1-48.09,45.76-48.09S924,104,924,134c0,30.42-17.84,48.26-45.77,48.26S832.51,164.36,832.51,134Zm65.93.09c0-18.36-7.93-29-20.17-29s-20.25,10.6-20.25,29c0,18.53,7.84,28.95,20.25,28.95S898.44,152.64,898.44,134.11Z"/><path d="M937,87.92h24.31v16.63h.51c3.28-11.72,11.12-18.1,22-18.1a25.47,25.47,0,0,1,7.15,1v22.15a25.63,25.63,0,0,0-9.13-1.47c-12.41,0-19.65,7.59-19.65,20.6V180.3H937Z"/><path d="M1033.07,66.63V87.92h17.07v19h-17.07v44.22c0,7.06,3.45,10.43,10.86,10.43a40.42,40.42,0,0,0,6.12-.44v18.53a57.31,57.31,0,0,1-12,1c-21.72,0-30.16-7.24-30.16-25.25V106.87h-13v-19h13V66.63Z"/><path d="M1063.93,87.92h24.31v16.63h.51c3.28-11.72,11.12-18.1,22-18.1a25.47,25.47,0,0,1,7.15,1v22.15a25.67,25.67,0,0,0-9.13-1.47c-12.41,0-19.65,7.59-19.65,20.6V180.3h-25.17Z"/><path d="M1122.46,153.76c0-16.81,12.92-26.55,35.93-27.92l23.27-1.38v-6.12c0-8.62-6-13.62-15.51-13.62s-15.34,4.65-16.55,11.46h-23c1-17.92,16.2-30.25,40.68-30.25,23.7,0,39.13,12.24,39.13,30.86V180.3h-24.31V166.17h-.51c-5.17,9.82-16.64,15.6-28.19,15.6C1135.81,181.77,1122.46,170.39,1122.46,153.76Zm59.2-7.33v-6.72l-19.47,1.21c-9.4.69-14.74,4.91-14.74,11.46,0,6.89,5.69,11.2,14.22,11.2C1172.61,163.58,1181.66,156.43,1181.66,146.43Z"/><path d="M1222.44,62.49a13.1,13.1,0,1,1,13.1,12.93A12.94,12.94,0,0,1,1222.44,62.49Zm.6,25.43h25.16V180.3H1223Z"/><path d="M1296.81,66.63V87.92h17.07v19h-17.07v44.22c0,7.06,3.45,10.43,10.86,10.43a40.42,40.42,0,0,0,6.12-.44v18.53a57.24,57.24,0,0,1-12,1c-21.71,0-30.16-7.24-30.16-25.25V106.87h-13v-19h13V66.63Z"/><path d="M1308.51,245.48H55.28A55.34,55.34,0,0,1,0,190.21V55.28A55.34,55.34,0,0,1,55.28,0H1308.51a55.34,55.34,0,0,1,55.27,55.28V190.21A55.33,55.33,0,0,1,1308.51,245.48ZM55.28,25A30.31,30.31,0,0,0,25,55.28V190.21a30.31,30.31,0,0,0,30.28,30.27H1308.51a30.31,30.31,0,0,0,30.27-30.27V55.28A30.31,30.31,0,0,0,1308.51,25Z"/></g></g></svg>