<svg xmlns="http://www.w3.org/2000/svg" viewBox="0 0 2001.52 266.51"><defs><style>.cls-1{font-size:165.4px;font-family:MyriadPro-Regular, Myriad Pro;}.cls-2{letter-spacing:-0.01em;}.cls-3{letter-spacing:0em;}</style></defs><title>Asset 27</title><g id="Layer_2" data-name="Layer 2"><g id="Layer_1-2" data-name="Layer 1"><path d="M1931.73,266.51H69.79C31.31,266.51,0,230.82,0,186.94V79.57C0,35.7,31.31,0,69.79,0H1931.73c38.48,0,69.79,35.7,69.79,79.57V186.94C2001.52,230.82,1970.21,266.51,1931.73,266.51ZM69.79,30c-24,0-43.48,22.24-43.48,49.57V186.94c0,27.34,19.51,49.57,43.48,49.57H1931.73c24,0,43.48-22.23,43.48-49.57V79.57c0-27.33-19.51-49.57-43.48-49.57Z"/><text class="cls-1" transform="translate(59.45 191.59)">One delicious t<tspan class="cls-2" x="1027.64" y="0">r</tspan><tspan class="cls-3" x="1080.07" y="0">opical fruit</tspan></text></g></g></svg>