<svg xmlns="http://www.w3.org/2000/svg" viewBox="0 0 1967.95 742.07"><defs><style>.cls-1{fill:#eae9e8;}.cls-2{fill:#7fdef7;}.cls-3{fill:#5fa3b2;opacity:0.5;}.cls-4{fill:#29825e;}.cls-5{fill:#39c976;}.cls-6{fill:#a32b34;}.cls-7{fill:#5b584d;}.cls-8{fill:#726f65;}.cls-9{fill:#ad3846;}.cls-10{fill:#842837;}.cls-11{fill:#232323;}</style></defs><title>Asset 30</title><g id="Layer_2" data-name="Layer 2"><g id="Layer_1-2" data-name="Layer 1"><path class="cls-1" d="M180.61,716.18c-41.14,0-79.92-16.48-109.19-46.41A158.76,158.76,0,0,1,26,558.12V183.94A158.78,158.78,0,0,1,71.42,72.29c29.27-29.92,68.05-46.41,109.19-46.41h1607c41.14,0,79.92,16.49,109.19,46.41a158.78,158.78,0,0,1,45.38,111.65V558.12a158.76,158.76,0,0,1-45.38,111.65c-29.27,29.93-68,46.41-109.19,46.41Z"/><rect class="cls-2" x="48.83" y="49.19" width="1870.61" height="643.7" rx="134.76"/><ellipse class="cls-3" cx="930.52" cy="609.21" rx="553.73" ry="83.67"/><path class="cls-4" d="M64.68,316.56S119,508.77,260.7,594.07,465.09,652,465.09,652Z"/><path class="cls-5" d="M64.07,317.29S262.82,337,371.64,461.63s92.85,191.09,92.85,191.09Z"/><path class="cls-4" d="M575.81,60.23s-123,157.33-108.13,322.09,74,199.14,74,199.14Z"/><path class="cls-5" d="M574.87,60.17s101.47,172,65.21,333.44S540.74,581.4,540.74,581.4Z"/><path class="cls-4" d="M1210.47,80.84s-55,213.6,32.93,373.74S1406.31,623.4,1406.31,623.4Z"/><path class="cls-5" d="M1209.49,81.19s178.72,129.25,213.37,308.62-17.53,233.94-17.53,233.94Z"/><path class="cls-4" d="M1894.59,414S1772,597.3,1594,638.51s-234.43-8.93-234.43-8.93Z"/><path class="cls-5" d="M1895,414.92s-215.47-47.09-372.28,46.64-162.72,169-162.72,169Z"/><path class="cls-6" d="M534.63,176.1c-24-35.63-71.16-46.83-108.33-27.16-28,1.34-76.86,22.07-126.95,55.8s-87.65,71.18-99.43,96.66A83.79,83.79,0,0,0,184.35,412L254,515.48a83,83,0,0,0,7,9q4.4,7.92,9.55,15.59c65.14,96.73,196.36,122.33,293.09,57.2S686,400.9,620.88,304.17q-5.16-7.65-10.86-14.71a82.32,82.32,0,0,0-5.7-9.87Z"/><path class="cls-7" d="M333.36,250.25S306.12,161,362.44,117.85"/><path class="cls-7" d="M368.58,238.44a127.51,127.51,0,0,1-3-12.64l1.85,9.45a181.82,181.82,0,0,1-3.27-46.09l-.62,9.48a126.94,126.94,0,0,1,5.82-31.26l-3,9a95.5,95.5,0,0,1,10.28-21.62l-5.27,8.06a85.6,85.6,0,0,1,14.32-16.71l-7.45,6.62q2.4-2.13,4.95-4.1A27.89,27.89,0,0,0,393.27,138a27.84,27.84,0,0,0,5.62-13,27.76,27.76,0,0,0-.3-14.2,28.13,28.13,0,0,0-5.34-13.66c-5.72-7.72-13.91-14.22-23.69-15.7C360.17,80,349.47,81,341.7,87s-15.43,12.74-21.64,20.44A132.26,132.26,0,0,0,305,130.76c-4.1,8.11-7,16.89-9.52,25.56a120.44,120.44,0,0,0-3.74,17.43,205.64,205.64,0,0,0-1.62,42c.79,11.67,2.89,23.06,5.21,34.51.79,4,1.65,7.94,2.83,11.8a28.08,28.08,0,0,0,7.72,12.65,27.63,27.63,0,0,0,11.37,9A28,28,0,0,0,331,287a27.92,27.92,0,0,0,14.19-1.54c9.1-3.51,17.69-9.86,21.65-19.09a39.71,39.71,0,0,0,1.76-27.94Z"/><path class="cls-8" d="M319.77,277.12c-1.18-3.86-2-7.84-2.83-11.8-2.31-11.45-4.42-22.84-5.2-34.51a204.93,204.93,0,0,1,1.61-42,120.44,120.44,0,0,1,3.74-17.43c2.58-8.67,5.42-17.45,9.52-25.56a132.26,132.26,0,0,1,15.08-23.28c6.21-7.7,13.84-14.42,21.64-20.44S381.8,95,391.19,96.45c.61.09,1.21.2,1.81.33-5.71-7.58-13.79-13.92-23.44-15.38C360.17,80,349.47,81,341.7,87s-15.43,12.74-21.64,20.44A132.63,132.63,0,0,0,305,130.76c-4.1,8.11-7,16.89-9.52,25.56a120.44,120.44,0,0,0-3.74,17.43,205.64,205.64,0,0,0-1.62,42c.79,11.67,2.89,23.06,5.21,34.51.79,4,1.65,7.94,2.83,11.8a28.08,28.08,0,0,0,7.72,12.65,27.63,27.63,0,0,0,11.37,9,28.3,28.3,0,0,0,7.18,2.64A28.53,28.53,0,0,1,319.77,277.12Z"/><path class="cls-9" d="M429.18,316.56S368.48,387.4,301.82,363"/><path class="cls-9" d="M400.32,293.17c-2.82,3.28-5.93,6.33-9.06,9.31l7-6.63a181.75,181.75,0,0,1-37.15,27.48l8.34-4.57a126.43,126.43,0,0,1-29.5,11.86l9.21-2.31a95.21,95.21,0,0,1-23.76,2.92l9.63.12a85.38,85.38,0,0,1-21.78-3.12l9.58,2.74q-3.09-.89-6.11-2a27.9,27.9,0,0,0-14.39-2.8,33.41,33.41,0,0,0-25.85,10.12,28.06,28.06,0,0,0-8.67,11.83c-3.45,9-4.55,19.37-.55,28.42,3.84,8.69,10.47,17.15,19.71,20.49s19,6.19,28.85,7.31a132.58,132.58,0,0,0,27.74.23c9-.88,18-3.19,26.68-5.67a120.23,120.23,0,0,0,16.72-6.19,204.69,204.69,0,0,0,36.32-21.16c9.43-6.92,17.91-14.81,26.34-22.9,2.91-2.8,5.81-5.65,8.44-8.72a28.24,28.24,0,0,0,6.54-13.3,27.69,27.69,0,0,0,1.49-14.42,28.19,28.19,0,0,0-4.59-13.38,28,28,0,0,0-8.91-11.15c-7.85-5.79-17.81-9.64-27.72-8a39.68,39.68,0,0,0-24.53,13.5Z"/><path class="cls-6" d="M1690.75,462.63A83.79,83.79,0,0,0,1693.51,351c-7.45-27.06-38.36-70.16-82.25-111.64s-88.66-69.93-116.09-75.84a83.79,83.79,0,0,0-111.32,9l-85.71,90.68a83.27,83.27,0,0,0-7.24,8.8q-6.76,6-13.11,12.73c-80.11,84.75-76.35,218.39,8.4,298.5s218.39,76.34,298.49-8.4q6.35-6.71,12-13.81a84.51,84.51,0,0,0,8.38-7.73Z"/><path class="cls-7" d="M1574.3,282.49s81.09-46.12,135.56-.63"/><path class="cls-7" d="M1593.55,314.27a129.69,129.69,0,0,1,11.67-5.7l-8.82,3.88a182.18,182.18,0,0,1,44.26-13.29l-9.38,1.48a126.6,126.6,0,0,1,31.77-1.18l-9.45-.94a95.42,95.42,0,0,1,23.34,5.29l-9-3.37a85.61,85.61,0,0,1,19.44,10.3l-8.09-5.81q2.61,1.88,5.08,3.92a38.16,38.16,0,0,0,52.5-1.47c6.29-7.28,10.84-16.69,10.14-26.56-.67-9.47-4-19.67-11.61-25.95s-15.81-12.26-24.68-16.63a132.84,132.84,0,0,0-26-9.61c-8.81-2.23-18-3.08-27-3.69a117.77,117.77,0,0,0-17.82.17,204.55,204.55,0,0,0-41.34,7.62c-11.22,3.32-21.87,7.88-32.54,12.64-3.69,1.65-7.38,3.35-10.89,5.35A28.14,28.14,0,0,0,1544.4,261a27.71,27.71,0,0,0-6.28,13.07,28.12,28.12,0,0,0-.21,14.14,28,28,0,0,0,4.62,13.51c5.42,8.1,13.5,15.09,23.37,16.93a39.68,39.68,0,0,0,27.65-4.4Z"/><path class="cls-8" d="M1545.11,275.12c3.52-2,7.21-3.7,10.89-5.35,10.67-4.76,21.33-9.31,32.54-12.63a204.57,204.57,0,0,1,41.34-7.63,120.47,120.47,0,0,1,17.82-.17c9,.61,18.22,1.46,27,3.69a132.37,132.37,0,0,1,26,9.61c8.87,4.38,17.1,10.35,24.68,16.64s10.94,16.48,11.61,25.94c0,.62.07,1.23.07,1.84,6.15-7.23,10.57-16.51,9.88-26.24-.67-9.47-4-19.67-11.61-25.95s-15.81-12.26-24.68-16.63a132.84,132.84,0,0,0-26-9.61c-8.81-2.23-18-3.08-27-3.69a117.77,117.77,0,0,0-17.82.17,204.55,204.55,0,0,0-41.34,7.62c-11.22,3.32-21.87,7.88-32.54,12.64-3.69,1.65-7.38,3.35-10.89,5.35A28.14,28.14,0,0,0,1544.4,261a27.71,27.71,0,0,0-6.28,13.07,28.74,28.74,0,0,0-1,7.59A28.42,28.42,0,0,1,1545.11,275.12Z"/><path class="cls-9" d="M1563.51,491.05s83.71-41.18,76.68-111.8"/><path class="cls-9" d="M1548,457.28c3.87-1.92,7.6-4.17,11.26-6.46l-8.16,5.11A181.83,181.83,0,0,0,1587,426.78l-6.49,6.94a127,127,0,0,0,18.82-25.62l-4.53,8.34a95.49,95.49,0,0,0,8.74-22.28l-2.28,9.36a85.27,85.27,0,0,0,2.39-21.88l.27,10c-.05-2.14-.19-4.27-.39-6.41a28,28,0,0,1,.86-14.63A33.39,33.39,0,0,1,1620.63,348a28,28,0,0,1,13.61-5.45c9.55-1.11,19.89.41,27.67,6.54,7.45,5.87,14,14.4,14.94,24.18s1.26,20-.1,29.76a132.93,132.93,0,0,1-6.67,26.93c-3.1,8.53-7.57,16.62-12.13,24.43a119.83,119.83,0,0,1-10.15,14.65A204.72,204.72,0,0,1,1618.26,499c-9,7.42-18.8,13.67-28.73,19.82-3.43,2.13-6.92,4.22-10.54,6a28.22,28.22,0,0,1-14.51,3,27.61,27.61,0,0,1-14.34-2.14,41.45,41.45,0,0,1-20.4-19.18c-3.66-9-4.9-19.64-.88-28.85A39.65,39.65,0,0,1,1548,457.28Z"/><path class="cls-10" d="M618,304.37q-5.16-7.67-10.85-14.72a83.57,83.57,0,0,0-5.7-9.86l-46.24-68.66c-9.49,3.44-17.44,7.22-23.49,11.22a83.78,83.78,0,0,0-71.38,85.89l4.89,124.68a84.12,84.12,0,0,0,1.22,11.32q-.42,9.06-.06,18.29a210.53,210.53,0,0,0,70.14,149,210.73,210.73,0,0,0,24.27-14.12C657.54,532.32,683.15,401.1,618,304.37Z"/><path class="cls-10" d="M537.3,184.51l-4.87-7.22A27.47,27.47,0,0,0,537.3,184.51Z"/><path class="cls-10" d="M1340.84,436.63q-.36-9.22-1.5-18.22a82.85,82.85,0,0,0,.34-11.39l-4.89-124.68a82.7,82.7,0,0,0-15-44.36l-22.72,24a84.52,84.52,0,0,0-7.24,8.8q-6.76,6-13.11,12.74c-80.11,84.74-76.35,218.38,8.4,298.49,1,.91,1.93,1.8,2.91,2.68A210.47,210.47,0,0,0,1340.84,436.63Z"/><path class="cls-6" d="M946,300.63c1.69-42.92-29.76-79.82-71.37-85.9-23.42-15.47-75.06-27.59-135.4-29.95s-112.77,5.67-137.32,19.27a83.8,83.8,0,0,0-77.89,80l-4.88,124.68a82.85,82.85,0,0,0,.34,11.39q-1.14,9-1.5,18.22c-4.57,116.53,86.19,214.69,202.72,219.26S935.38,571.44,940,454.91q.36-9.21-.07-18.28a82.53,82.53,0,0,0,1.23-11.32Z"/><path class="cls-7" d="M739.78,241.59s30.72-88.08,101.67-89.66"/><path class="cls-7" d="M775.18,252.86a129.45,129.45,0,0,1,5-12l-4.08,8.72a181.47,181.47,0,0,1,24.58-39.12l-6.1,7.28A126.54,126.54,0,0,1,817.78,196L810,201.49a95,95,0,0,1,21.06-11.37l-9,3.39a85.65,85.65,0,0,1,21.42-5l-9.92.94q3.2-.3,6.41-.38a28,28,0,0,0,14.42-2.64,33.34,33.34,0,0,0,20.39-18.85,27.84,27.84,0,0,0,3.75-14.17c0-9.61-2.81-19.69-9.84-26.67-6.73-6.68-16-12.15-25.81-11.89s-20,1.16-29.53,3.7a132.81,132.81,0,0,0-25.92,9.89c-8.1,4.11-15.58,9.52-22.78,15a118.85,118.85,0,0,0-13.31,11.85,205.51,205.51,0,0,0-26.12,33c-6.26,9.88-11.29,20.32-16.19,30.92-1.69,3.67-3.34,7.38-4.68,11.19a28.18,28.18,0,0,0-1.24,14.78,27.71,27.71,0,0,0,3.86,14,28.18,28.18,0,0,0,9.15,10.78A28.05,28.05,0,0,0,728.51,277c9.42,2.54,20.1,2.49,28.75-2.62a39.68,39.68,0,0,0,17.92-21.51Z"/><path class="cls-8" d="M713,255.24c1.33-3.81,3-7.52,4.68-11.19,4.9-10.6,9.93-21,16.19-30.92a205.45,205.45,0,0,1,26.11-32.95,120.65,120.65,0,0,1,13.31-11.85c7.21-5.48,14.69-10.89,22.79-15a133,133,0,0,1,25.91-9.89c9.56-2.54,19.69-3.45,29.54-3.7s19.08,5.21,25.81,11.89c.44.44.86.89,1.27,1.34-.13-9.49-2.91-19.38-9.84-26.26-6.73-6.68-16-12.15-25.81-11.89s-20,1.16-29.53,3.7a132.81,132.81,0,0,0-25.92,9.89c-8.1,4.11-15.58,9.52-22.78,15a118.85,118.85,0,0,0-13.31,11.85,205.51,205.51,0,0,0-26.12,33c-6.26,9.88-11.29,20.32-16.19,30.92-1.69,3.67-3.34,7.38-4.68,11.19a28.18,28.18,0,0,0-1.24,14.78,27.71,27.71,0,0,0,3.86,14,29,29,0,0,0,4.24,6.37A28.77,28.77,0,0,1,713,255.24Z"/><path class="cls-9" d="M592,407.89s-24.31-90.06,33.39-131.38"/><path class="cls-9" d="M627.59,397.24A128.67,128.67,0,0,1,625,384.51l1.54,9.5a182.15,182.15,0,0,1-1.77-46.17l-.92,9.45a126.51,126.51,0,0,1,6.83-31.05l-3.29,8.91a95.62,95.62,0,0,1,11-21.26l-5.53,7.88a85.15,85.15,0,0,1,14.86-16.23l-7.66,6.37c1.64-1.37,3.34-2.68,5.07-3.94a28,28,0,0,0,10.43-10.31,33.43,33.43,0,0,0,6.2-27.06,28,28,0,0,0-4.89-13.82c-5.47-7.91-13.43-14.67-23.17-16.47-9.33-1.72-20.06-1-28,4.73s-15.84,12.23-22.3,19.72a133.2,133.2,0,0,0-15.83,22.78c-4.36,8-7.49,16.65-10.35,25.24a119.72,119.72,0,0,0-4.31,17.29,205.22,205.22,0,0,0-3,41.93c.4,11.69,2.14,23.15,4.07,34.67.67,4,1.4,8,2.45,11.88a28.05,28.05,0,0,0,7.3,12.9,27.69,27.69,0,0,0,11.07,9.36,41.5,41.5,0,0,0,27.87,2.67c9.21-3.21,18-9.28,22.26-18.37a39.66,39.66,0,0,0,2.67-27.87Z"/><path class="cls-10" d="M940,455.24q.36-9.23-.07-18.28a82.84,82.84,0,0,0,1.23-11.33L946,301c1.69-42.91-29.76-79.81-71.37-85.89l-1.21-.78-1.21.78c-41.62,6.08-73.06,43-71.38,85.89l4.89,124.68A84.44,84.44,0,0,0,806.93,437q-.42,9.06-.06,18.28A210.46,210.46,0,0,0,873.41,601,210.46,210.46,0,0,0,940,455.24Z"/><path class="cls-6" d="M879.44,283.07c-1.69-42.92,29.76-79.82,71.37-85.89,23.42-15.48,75.06-27.6,135.4-30s112.77,5.67,137.32,19.27a83.8,83.8,0,0,1,77.89,80l4.88,124.68a82.85,82.85,0,0,1-.34,11.39q1.14,9,1.5,18.22c4.57,116.53-86.19,214.69-202.72,219.26s-214.69-86.2-219.26-202.72q-.36-9.23.07-18.29a82.53,82.53,0,0,1-1.23-11.32Z"/><path class="cls-7" d="M1085.65,224S1054.93,136,984,134.37"/><path class="cls-7" d="M1050.25,235.3c-1.43-4.08-3.21-8.05-5-12l4.08,8.72a181.47,181.47,0,0,0-24.58-39.12l6.1,7.28a126.54,126.54,0,0,0-23.16-21.79l7.74,5.51a95,95,0,0,0-21.06-11.37l9,3.39a85.65,85.65,0,0,0-21.42-5l9.92.94q-3.2-.3-6.41-.38A28,28,0,0,1,971,168.84a27.89,27.89,0,0,1-12.25-7.2A27.84,27.84,0,0,1,950.62,150a27.84,27.84,0,0,1-3.75-14.17c0-9.61,2.81-19.69,9.84-26.67,6.73-6.68,16-12.15,25.81-11.89s20,1.16,29.53,3.7a133.45,133.45,0,0,1,25.92,9.89c8.1,4.11,15.58,9.52,22.78,15a118,118,0,0,1,13.31,11.86,205,205,0,0,1,26.12,32.94c6.26,9.88,11.29,20.32,16.18,30.92,1.7,3.67,3.35,7.38,4.69,11.2a28.13,28.13,0,0,1,1.24,14.77,27.71,27.71,0,0,1-3.86,14,28.18,28.18,0,0,1-9.15,10.78,28.05,28.05,0,0,1-12.36,7.14c-9.42,2.54-20.1,2.49-28.75-2.62a39.68,39.68,0,0,1-17.92-21.51Z"/><path class="cls-8" d="M1112.48,237.69c-1.33-3.82-3-7.53-4.68-11.19-4.9-10.61-9.93-21.05-16.19-30.93a204.93,204.93,0,0,0-26.11-32.94,119.72,119.72,0,0,0-13.31-11.86c-7.21-5.48-14.69-10.89-22.79-15a133.6,133.6,0,0,0-25.91-9.89c-9.56-2.54-19.69-3.45-29.54-3.7s-19.08,5.21-25.81,11.89c-.44.44-.86.89-1.27,1.34.13-9.49,2.91-19.38,9.84-26.26,6.73-6.68,16-12.15,25.81-11.89s20,1.16,29.53,3.7a133.45,133.45,0,0,1,25.92,9.89c8.1,4.11,15.58,9.52,22.78,15a118,118,0,0,1,13.31,11.86,205,205,0,0,1,26.12,32.94c6.26,9.88,11.29,20.32,16.18,30.92,1.7,3.67,3.35,7.38,4.69,11.19a28.18,28.18,0,0,1,1.24,14.78,27.71,27.71,0,0,1-3.86,14,29,29,0,0,1-4.24,6.37A28.68,28.68,0,0,0,1112.48,237.69Z"/><path class="cls-9" d="M1148.15,558.94s88-30.94,89.41-101.9"/><path class="cls-9" d="M1136.79,523.57a129.58,129.58,0,0,0,12-5.08L1140,522.6a181.63,181.63,0,0,0,39.06-24.68l-7.27,6.11a126.11,126.11,0,0,0,21.73-23.2l-5.48,7.75a95.45,95.45,0,0,0,11.32-21.09l-3.38,9a85.31,85.31,0,0,0,5-21.43l-.92,9.92c.2-2.14.32-4.27.37-6.41a41.33,41.33,0,0,1,9.78-26.7,41.3,41.3,0,0,1,25.78-12c9.62,0,19.7,2.77,26.69,9.77,6.71,6.72,12.19,16,12,25.79s-1.12,20-3.64,29.54a132.35,132.35,0,0,1-9.82,25.94c-4.09,8.11-9.48,15.61-14.94,22.82a119.78,119.78,0,0,1-11.82,13.34,205,205,0,0,1-32.88,26.2c-9.86,6.28-20.29,11.34-30.88,16.27-3.66,1.7-7.37,3.36-11.18,4.71a28.15,28.15,0,0,1-14.77,1.28,27.69,27.69,0,0,1-14-3.83,41.52,41.52,0,0,1-18-21.47c-2.56-9.4-2.54-20.09,2.55-28.75a39.67,39.67,0,0,1,21.46-18Z"/><path class="cls-11" d="M1915.19,54.2C1881,19.25,1835.66,0,1787.5,0h-1607C132.29,0,86.94,19.25,52.76,54.2A184.5,184.5,0,0,0,0,183.94V558.12A184.5,184.5,0,0,0,52.76,687.87c34.18,35,79.53,54.2,127.69,54.2H1787.5c48.16,0,93.51-19.25,127.69-54.2A184.5,184.5,0,0,0,1968,558.12V183.94A184.5,184.5,0,0,0,1915.19,54.2Zm26.88,503.93a158.71,158.71,0,0,1-45.39,111.64c-29.26,29.93-68,46.41-109.18,46.41h-1607c-41.14,0-79.91-16.48-109.18-46.41A158.7,158.7,0,0,1,25.89,558.13V183.94A158.74,158.74,0,0,1,71.27,72.29c29.27-29.92,68-46.4,109.18-46.4H1787.5c41.14,0,79.92,16.48,109.18,46.4a158.75,158.75,0,0,1,45.39,111.65Z"/></g></g></svg>