<svg xmlns="http://www.w3.org/2000/svg" viewBox="0 0 2117.67 2725.25"><defs><style>.cls-1{fill:#191919;}.cls-2{fill:#bbcedb;}.cls-3{fill:#dfebf3;}.cls-4{opacity:0.75;}.cls-5{fill:#283718;}.cls-16,.cls-6{fill:#c2f29b;}.cls-7{opacity:0.2;}.cls-8{fill:#65a46f;}.cls-9{fill:#fff;opacity:0.4;}.cls-10{fill:#342;}.cls-11,.cls-14{fill:#678d41;}.cls-11{opacity:0.3;}.cls-12{fill:#334438;}.cls-13{opacity:0.25;}.cls-15{opacity:0.15;}.cls-16{opacity:0.23;}</style></defs><title>Asset 28</title><g id="Layer_2" data-name="Layer 2"><g id="Layer_1-2" data-name="Layer 1"><path class="cls-1" d="M300.75,2725.25A301,301,0,0,1,0,2424.51V300.75A300.17,300.17,0,0,1,88.25,88.25,300.17,300.17,0,0,1,300.75,0H1816.92a300.17,300.17,0,0,1,212.5,88.25,300.17,300.17,0,0,1,88.25,212.5V2424.51a301,301,0,0,1-300.75,300.74Z"/><path class="cls-2" d="M2066.25,195.4a272.56,272.56,0,0,0-144-144A268,268,0,0,0,1816.92,30H300.75A268,268,0,0,0,195.4,51.42a272.56,272.56,0,0,0-144,144A268,268,0,0,0,30,300.75V2424.51a268,268,0,0,0,21.42,105.34,272.56,272.56,0,0,0,144,144,267.85,267.85,0,0,0,105.35,21.42H1816.92a267.85,267.85,0,0,0,105.35-21.42,272.56,272.56,0,0,0,144-144,267.84,267.84,0,0,0,21.42-105.34V300.75A267.85,267.85,0,0,0,2066.25,195.4Z"/><path class="cls-2" d="M300.75,2695.25a267.85,267.85,0,0,1-105.35-21.42,272.56,272.56,0,0,1-144-144A268,268,0,0,1,30,2424.51V300.75A268,268,0,0,1,51.42,195.4a272.56,272.56,0,0,1,144-144A268,268,0,0,1,300.75,30H1816.92a268,268,0,0,1,105.35,21.42,272.56,272.56,0,0,1,144,144,267.85,267.85,0,0,1,21.42,105.35V2424.51a267.84,267.84,0,0,1-21.42,105.34,272.56,272.56,0,0,1-144,144,267.85,267.85,0,0,1-105.35,21.42Z"/><rect class="cls-3" x="110" y="110" width="1897.67" height="2505.26" rx="190.75"/><g class="cls-4"><path class="cls-5" d="M1033,2049a783.91,783.91,0,0,1-308.21-62.65,800.45,800.45,0,0,1-422.49-422.48,789.43,789.43,0,0,1,7-632.31V522.08c0-95.4,77.62-173,173-173H1635.4c95.41,0,173,77.62,173,173V931.57a789.48,789.48,0,0,1,7,632.31,800.45,800.45,0,0,1-422.49,422.48A783.87,783.87,0,0,1,1084.69,2049Z"/><path class="cls-6" d="M1746.17,943.41V519.88c0-60.49-49.49-110-110-110H483.46c-60.49,0-110,49.49-110,110V943.41a724.43,724.43,0,0,0-69.58,310.35v.26c0,401.67,328.64,730.3,730.3,730.3h51.26c401.67,0,730.31-328.63,730.31-730.3v-.26A724.29,724.29,0,0,0,1746.17,943.41Z"/><g class="cls-7"><path class="cls-8" d="M1085.45,1949.44h-51.26c-394.81,0-719.06-317.52-730-709.82q-.29,10.37-.29,20.79v.26c0,401.67,328.64,730.31,730.3,730.31h51.26c401.67,0,730.31-328.64,730.31-730.31v-.26q0-10.42-.3-20.79C1804.52,1631.92,1480.27,1949.44,1085.45,1949.44Z"/></g><path class="cls-9" d="M666.56,473.29H488.26A40.79,40.79,0,0,0,447.59,514h0a40.79,40.79,0,0,0,40.67,40.66h178.3A40.79,40.79,0,0,0,707.23,514h0A40.79,40.79,0,0,0,666.56,473.29Z"/><circle class="cls-9" cx="813.8" cy="513.96" r="44.66"/><path class="cls-6" d="M588.72,946s322.44-30.78,331.55,17.2"/><path class="cls-10" d="M588.72,982c22.78-2.17,45.63-3.81,68.47-5.26,46.3-3,92.73-5,139.13-4.37,24.13.31,48.37,1.21,72.31,4.42l-9.57-1.29c12.39,1.69,25.09,3.82,36.69,8.67l-8.6-3.63a41.48,41.48,0,0,1,9,5.08L888.89,980a20.91,20.91,0,0,1,3.48,3.43l-5.63-7.29a14.17,14.17,0,0,1,1.75,3l-3.63-8.6a13.16,13.16,0,0,1,.7,2.29c1.73,8.5,9.25,17.25,16.54,21.52,7.72,4.51,19.09,6.43,27.74,3.63C949.43,991.6,959,973.46,955,953.65c-5.55-27.25-35.85-39.69-60-44.73-28.82-6-58.7-7.66-88.07-8.34-59.31-1.37-118.76,1.74-177.9,6.12-13.45,1-26.91,2-40.33,3.32-9.76.93-18.31,3.39-25.46,10.55-6.24,6.24-11,16.48-10.54,25.45.41,9.31,3.47,19,10.54,25.46,6.65,6.1,16.09,11.44,25.46,10.54Z"/><path class="cls-11" d="M1026.08,897.75a12.37,12.37,0,0,0-12.34,12.34v63.49a12.35,12.35,0,0,0,24.69,0V910.09A12.38,12.38,0,0,0,1026.08,897.75Z"/><path class="cls-12" d="M907.19,1560.09s313.71-59.11,270.75,0"/><path class="cls-12" d="M909.71,1569.21c32.63-6.15,65.49-11.29,98.38-15.78,26.91-3.68,53.93-6.8,81-8.68,12.49-.87,25-1.47,37.52-1.48,5.42,0,10.85.11,16.26.42q3.3.18,6.59.47l3.34.34c2.07.23.86.08,2,.25a84.78,84.78,0,0,1,12.21,2.72c.84.25,1.66.57,2.47.89-2.48-1-.09,0,.48.3l1.89,1.1c2.17,1.26-1.32-.89.24.2,1.09.77.44,1.32.62.56.09-.4.12.13-.14-.25-1.16-1.63.47.2.09.66,1.25-1.52-1.34-.92-.19-.36.47.23.11-1,0-.19-.07.48-.9,2.56-.31,1.13s-.46.81-.73,1.26c-.53.87-1.08,1.72-1.67,2.55-7.07,9.93,9.32,19.39,16.33,9.54,10.55-14.83,3.22-29.45-12.77-35.19-19.21-6.9-42.13-5.72-62.19-5-55.55,2-111,10.26-165.82,19.25-13.57,2.22-27.14,4.52-40.65,7.06-11.95,2.25-6.89,20.48,5,18.24Z"/><g class="cls-13"><path class="cls-14" d="M1255.18,1521.82s19.91,18.46,0,50"/><path class="cls-14" d="M1246.36,1530.64c.57.54,2.31,2.9.85.85a24.49,24.49,0,0,1,3.12,5.92c3.51,9.76-.95,19.73-5.92,28.07-8.25,13.82,13.32,26.38,21.54,12.59,11.65-19.52,16.29-47.59-2-65.08-11.59-11.11-29.26,6.51-17.64,17.65Z"/></g><g class="cls-15"><path class="cls-14" d="M1006.06,1629s28.52-30.76,77.19,0"/><path class="cls-14" d="M1019.69,1642.6c.85-.89,4.49-3.57,1.32-1.31a37.64,37.64,0,0,1,9.15-4.83c15.07-5.43,30.47,1.46,43.36,9.15,21.35,12.74,40.76-20.57,19.45-33.28-30.16-18-73.53-25.17-100.54,3-17.16,17.91,10.06,45.21,27.26,27.26Z"/></g><path class="cls-6" d="M1483.06,946s-322.44-30.78-331.55,17.2"/><path class="cls-10" d="M1483.06,910c-37.11-3.54-74.36-5.92-111.6-7.65-62-2.89-125.81-5.37-187.31,5.16a140.67,140.67,0,0,0-38.46,12c-13.19,6.42-25.88,19.29-28.9,34.08-1.94,9.54-1.4,19.14,3.63,27.74,4.37,7.47,12.93,14.59,21.52,16.55,18,4.09,40.26-5.41,44.28-25.15a12.35,12.35,0,0,1,.7-2.29l-3.63,8.6a14.57,14.57,0,0,1,1.74-3l-5.62,7.29a20.53,20.53,0,0,1,3.48-3.43l-7.28,5.63a41.25,41.25,0,0,1,9-5.08l-8.6,3.63c11.6-4.85,24.3-7,36.69-8.67l-9.57,1.29c44.58-6,90.21-5.1,135.06-3.73,40.26,1.23,80.5,3.64,120.65,6.86,8.07.65,16.14,1.31,24.2,2.08,8.67.83,19.52-4.61,25.46-10.54,6.24-6.25,10.94-16.49,10.54-25.46-.42-9.31-3.47-19-10.54-25.45-7.41-6.8-15.46-9.6-25.46-10.55Z"/><path class="cls-5" d="M855.42,1444.78c84.1,0,152.51-68.41,152.51-152.51v-50.76a141.63,141.63,0,0,1,28.24-2.88,131.77,131.77,0,0,1,23.54,2.11v51.53c0,84.1,68.41,152.51,152.5,152.51h183.52c84.09,0,152.51-68.41,152.51-152.51V1212.6c0-84.1-68.42-152.51-152.51-152.51H1212.21a152,152,0,0,0-139.5,90.86,155.22,155.22,0,0,0-38.39-4.86,145.73,145.73,0,0,0-39.21,5.34,154.55,154.55,0,0,0-48.48-61,151.11,151.11,0,0,0-91.21-30.34H671.91c-84.09,0-152.51,68.41-152.51,152.51v79.67c0,84.1,68.42,152.51,152.51,152.51Z"/><rect class="cls-12" x="617.75" y="1141.63" width="330.96" height="230.1" rx="76.58"/><path class="cls-16" d="M777,1371.73h49.29l63-228a76.54,76.54,0,0,0-17.9-2.14h-30.8Z"/><path class="cls-16" d="M653.37,1360.22a76,76,0,0,0,40.29,11.51h64.82l63.59-230.1H713.78Z"/><rect class="cls-12" x="1140.99" y="1141.63" width="330.96" height="230.1" rx="76.58"/><path class="cls-16" d="M1300.67,1371.73H1350l63-228a76.46,76.46,0,0,0-17.89-2.14h-30.81Z"/><path class="cls-16" d="M1177,1360.22a76,76,0,0,0,40.28,11.51h64.83l63.58-230.1H1237.42Z"/><g class="cls-13"><path class="cls-14" d="M826.84,1521.82s-19.91,18.46,0,50"/><path class="cls-14" d="M835.66,1530.64c-.57.54-2.31,2.9-.85.85a24.49,24.49,0,0,0-3.12,5.92c-3.52,9.76.94,19.73,5.92,28.07,8.24,13.82-13.32,26.38-21.54,12.59-11.65-19.52-16.29-47.59,1.95-65.08,11.59-11.11,29.26,6.51,17.64,17.65Z"/></g></g><rect class="cls-2" x="415.19" y="2389.38" width="84.68" height="84.68" rx="30.49"/><rect class="cls-2" x="609.87" y="2389.38" width="84.68" height="84.68" rx="30.49"/><rect class="cls-2" x="609.87" y="2285.14" width="84.68" height="84.68" rx="30.49"/><rect class="cls-2" x="716.12" y="2179.52" width="84.68" height="84.68" rx="30.49"/><rect class="cls-2" x="913.98" y="2179.52" width="84.68" height="84.68" rx="30.49"/><rect class="cls-2" x="913.98" y="2389.38" width="84.68" height="84.68" rx="30.49"/><rect class="cls-2" x="1018.33" y="2285.14" width="84.68" height="84.68" rx="30.49"/><rect class="cls-2" x="1213.06" y="2179.52" width="84.68" height="84.68" rx="30.49"/><rect class="cls-2" x="1213.06" y="2389.64" width="84.68" height="84.68" rx="30.49"/><rect class="cls-2" x="1318.07" y="2179.52" width="84.68" height="84.68" rx="30.49"/><rect class="cls-2" x="1318.07" y="2285.14" width="84.68" height="84.68" rx="30.49"/><rect class="cls-2" x="1513.82" y="2179.52" width="84.68" height="84.68" rx="30.49"/><rect class="cls-2" x="1617.81" y="2179.52" width="84.68" height="84.68" rx="30.49"/><rect class="cls-2" x="1617.81" y="2285.14" width="84.68" height="84.68" rx="30.49"/><rect class="cls-2" x="1513.82" y="2389.38" width="84.68" height="84.68" rx="30.49"/></g></g></svg>