<svg xmlns="http://www.w3.org/2000/svg" viewBox="0 0 1111.59 249.02"><title>Asset 26</title><g id="Layer_2" data-name="Layer 2"><g id="Layer_1-2" data-name="Layer 1"><path d="M118.78,171.37H94.35L61.59,47.65H88.43l19.46,89.59h.69l23.15-89.59h21.86l23.15,89.59h.68L197,47.65h26.84L191,171.37H166.53L143,86.83h-.77Z"/><path d="M220.48,145c0-16.72,12.86-26.41,35.75-27.78l23.15-1.37v-6.09c0-8.57-6-13.54-15.43-13.54s-15.27,4.63-16.47,11.4H224.59c.95-17.83,16.12-30.09,40.47-30.09,23.58,0,38.92,12.17,38.92,30.69v63.19H279.81V157.31h-.52c-5.14,9.77-16.54,15.51-28,15.51C233.77,172.82,220.48,161.51,220.48,145Zm58.9-7.29V131L260,132.19c-9.34.68-14.66,4.88-14.66,11.4,0,6.86,5.66,11.14,14.15,11.14C270.38,154.73,279.38,147.62,279.38,137.67Z"/><path d="M351.83,58.28V79.46h17V98.32h-17v44c0,7,3.43,10.38,10.81,10.38a40,40,0,0,0,6.08-.43v18.43a57.44,57.44,0,0,1-11.91,1c-21.61,0-30-7.2-30-25.12V98.32H313.85V79.46H326.8V58.28Z"/><path d="M465.1,143.25c-2.75,18-19.21,30.09-41.93,30.09-28.29,0-45.27-18.09-45.27-47.5s17.15-48.35,44.33-48.35c26.75,0,43.64,18.09,43.64,46v7.63H402.51v1.54c0,13.12,8.32,22.12,21.09,22.12,9.17,0,16.2-4.54,18.52-11.57Zm-62.33-27.44h39c-.52-11.74-8.15-19.8-19.29-19.8C411.51,96,403.62,104.32,402.77,115.81Z"/><path d="M478.74,79.46h24.18V96h.51c3.26-11.66,11.06-18,21.86-18a25.72,25.72,0,0,1,7.12.94v22a25.72,25.72,0,0,0-9.09-1.46c-12.35,0-19.55,7.55-19.55,20.49v51.36h-25Z"/><path d="M651.08,141.36H607.61l-9.43,30H571.6L614.55,47.65H645l43,123.72H660.51ZM613.18,122H645.5L629.64,71.31H629Z"/><path d="M789.81,125.41c0,29.58-14.23,47.41-37.21,47.41-13.38,0-23.66-6.51-28.55-16.89h-.52v45.44h-25V79.46h24.69v16h.52c5-10.8,15.17-17.49,28.46-17.49C775.49,78,789.81,95.75,789.81,125.41Zm-25.64,0c0-16.63-7.88-27.35-20.4-27.35-12.26,0-20.32,10.89-20.32,27.35,0,16.64,8.06,27.27,20.32,27.27C756.29,152.68,764.17,142.13,764.17,125.41Z"/><path d="M894,125.41c0,29.58-14.24,47.41-37.21,47.41-13.38,0-23.67-6.51-28.55-16.89h-.52v45.44h-25V79.46h24.69v16h.51c5-10.8,15.18-17.49,28.47-17.49C879.67,78,894,95.75,894,125.41Zm-25.64,0c0-16.63-7.89-27.35-20.4-27.35-12.26,0-20.32,10.89-20.32,27.35,0,16.64,8.06,27.27,20.32,27.27C860.46,152.68,868.35,142.13,868.35,125.41Z"/><path d="M907.46,47.65h25V171.37h-25Z"/><path d="M1033.24,143.25c-2.75,18-19.21,30.09-41.93,30.09-28.29,0-45.27-18.09-45.27-47.5s17.15-48.35,44.33-48.35c26.75,0,43.64,18.09,43.64,46v7.63H970.65v1.54c0,13.12,8.31,22.12,21.09,22.12,9.17,0,16.2-4.54,18.52-11.57Zm-62.33-27.44h39c-.52-11.74-8.15-19.8-19.29-19.8C979.65,96,971.76,104.32,970.91,115.81Z"/><path d="M1040.24,249H71.35A71.43,71.43,0,0,1,0,177.68V71.35A71.43,71.43,0,0,1,71.35,0h968.89a71.43,71.43,0,0,1,71.35,71.35V177.68A71.43,71.43,0,0,1,1040.24,249ZM71.35,23.53A47.87,47.87,0,0,0,23.53,71.35V177.68a47.87,47.87,0,0,0,47.82,47.81h968.89a47.87,47.87,0,0,0,47.82-47.81V71.35a47.87,47.87,0,0,0-47.82-47.82Z"/></g></g></svg>